<svg xmlns="http://www.w3.org/2000/svg" viewBox="0 0 240 240" role="img" aria-labelledby="title desc">
  <title id="title">Google Ads Certified Badge</title>
  <desc id="desc">Circular badge inspired by the Google Ads AI Powered Performance certification.</desc>
  <defs>
    <linearGradient id="arc-blue" x1="0" y1="0" x2="1" y2="1">
      <stop offset="0" stop-color="#4285f4" />
      <stop offset="1" stop-color="#1a73e8" />
    </linearGradient>
    <linearGradient id="arc-red" x1="0" y1="0" x2="1" y2="1">
      <stop offset="0" stop-color="#ea4335" />
      <stop offset="1" stop-color="#c5221f" />
    </linearGradient>
    <linearGradient id="arc-yellow" x1="0" y1="0" x2="1" y2="1">
      <stop offset="0" stop-color="#fbbc04" />
      <stop offset="1" stop-color="#e37400" />
    </linearGradient>
    <linearGradient id="arc-green" x1="0" y1="0" x2="1" y2="1">
      <stop offset="0" stop-color="#34a853" />
      <stop offset="1" stop-color="#188038" />
    </linearGradient>
    <path id="text-path" d="M120 24a96 96 0 1 1 0 192a96 96 0 1 1 0-192z" />
  </defs>
  <circle cx="120" cy="120" r="118" fill="#ffffff" stroke="#dfe3eb" stroke-width="2" />
  <g fill="none" stroke-linecap="round" stroke-width="20" transform="rotate(-40 120 120)">
    <path d="M120 30a90 90 0 0 1 62.5 24.7" stroke="url(#arc-blue)" />
    <path d="M189.8 64.7a90 90 0 0 1 18.2 52" stroke="url(#arc-red)" />
    <path d="M202 139a90 90 0 0 1-36 56.5" stroke="url(#arc-yellow)" />
    <path d="M157.9 201.5a90 90 0 0 1-89.8-11.4" stroke="url(#arc-green)" />
  </g>
  <g transform="translate(120 120)">
    <path d="M-16 -40a18 18 0 0 1 31-18l32 52a18 18 0 0 1-16 28h-24z" fill="#4285f4" />
    <circle cx="28" cy="46" r="14" fill="#34a853" />
    <path d="M-16 -40h20l-22 86a18 18 0 0 1-17 14h-18z" fill="#fbbc04" />
  </g>
  <text font-family="'Manrope', 'Space Grotesk', sans-serif" font-size="16" letter-spacing="2" fill="#1f2937">
    <textPath xlink:href="#text-path" startOffset="50%" text-anchor="middle">
      GOOGLE ADS AI-POWERED PERFORMANCE • CERTIFIED •
    </textPath>
  </text>
</svg>
